<svg width="960.33" height="908" xmlns="http://www.w3.org/2000/svg">
    <path d="m571.68 259 69-227q1-5 0-9.5t-3-8.5q-3-4-7-7t-9-3q-17-2-35-3t-36-1q-88 0-173 29t-156.5 81q-71.5 52-124 123t-77.5 154q-14 45-18 90t1.5 88q5.5 43 20 83.5t38.5 77.5q24 37 55.5 68t69 54q37.5 23 81 38.5t91.5 21.5h4q7 0 12.5-4t7.5-12l31-102q36-118-4.5-172l-37.5-50q-6-5-11-11t-10-13q-14-23-17.5-50t5.5-56q15-52 61.5-87.5t101.5-38.5q1 0 30-8.5t40-44.5zm259-152q-7-6-22.5-14.5t-36.5-3.5q-24 5-33 24t-12 26l-219 733q-1 6 0 11.5t5 8.5q4 4 7.5 5.5t8.5 1.5h5q72-18 137.5-53t118.5-83.5q53-48.5 91.5-108.5t58.5-128q19-60 20.5-118.5t-13-112.5q-14.5-54-43.5-102t-73-86z" fill="#9e2132"/>
</svg>
