<?xml version="1.0" encoding="utf-8"?>
<!-- Uploaded to: SVG Repo, www.svgrepo.com, Generator: SVG Repo Mixer Tools -->
<svg width="100%" height="100%" viewBox="0 0 1024 1024" class="icon"  version="1.1" xmlns="http://www.w3.org/2000/svg"><path d="M993.763 493.538v35c0 13.331-6.04 26.664-18.135 37.137-140.15 121.422-280.35 242.795-420.49 364.219-11.814 10.237-25.813 15.501-42.454 15.501v-35c16.643 0 30.64-5.264 42.454-15.501 140.141-121.424 280.336-242.802 420.49-364.217 12.095-10.475 18.135-23.803 18.135-37.139z" fill="#E8C142" /><path d="M30.239 528.367v-3.5-1.75-3.5-3.5-1.75-3.5-3.5-1.75-3.5-3.5-1.75-3.5c0 14.707 6.701 29.313 19.037 40.019 138.449 120.064 277.049 239.996 415.562 360.02 13.002 11.26 28.74 16.466 47.852 16.994v35c-19.108-0.528-34.85-5.734-47.852-16.994C326.325 808.382 187.725 688.45 49.276 568.386c-12.337-10.705-19.037-25.312-19.037-40.019z" fill="#E8C142" /><path d="M510.786 76.601c16.263 0 32.546 5.362 44.946 16.097 139.95 121.188 279.901 242.376 419.819 363.586 24.241 20.995 24.295 53.413 0.079 74.397-140.15 121.42-280.35 242.796-420.489 364.217-11.815 10.239-25.813 15.502-42.452 15.502-19.109-0.528-34.852-5.734-47.854-16.994-138.511-120.024-277.111-239.956-415.56-360.02-19.581-16.988-24.96-43.81-11.895-65.251 3.919-6.438 8.669-11.829 14.465-16.849C189.954 331.734 328.024 212.152 466.107 92.567c12.296-10.639 28.478-15.966 44.679-15.966z" fill="#F6DB82" /><path d="M743.775 493.202v16.8c0 5.369-3.153 10.85-8.699 13.026-5.1 1.999-11.006 3.396-16.563 3.431-24.493 0.141-48.992 0.173-73.489 0.173-21.229 0-42.458-0.024-63.688-0.024-19.435 0-38.875 0.01-58.308 0.01-25.915 0-51.826-0.018-77.743-0.097-4.576-0.019-9.272-0.829-13.687-1.947-8.074-2.043-11.088-7.874-12.027-14.385a8.356 8.356 0 0 1-0.08-1.143v-16.801c0 0.387 0.027 0.77 0.08 1.144 0.939 6.513 3.953 12.344 12.027 14.387 4.415 1.118 9.112 1.929 13.687 1.947 25.918 0.081 51.829 0.097 77.743 0.097 19.435 0 38.876-0.01 58.308-0.01 21.229 0 42.458 0.024 63.688 0.024 24.497 0 48.996-0.033 73.489-0.173 5.557-0.034 11.464-1.432 16.563-3.43 5.546-2.179 8.699-7.66 8.699-13.029z" fill="#EAC54C" /><path d="M743.775 493.202v16.8a14 14 0 0 1-0.026 0.842v-16.8c0.018-0.28 0.026-0.562 0.026-0.842M743.749 494.044v16.8a14.383 14.383 0 0 1-3.344 8.357v-16.799a14.39 14.39 0 0 0 3.344-8.358M740.405 502.4v16.8a13.364 13.364 0 0 1-3.018 2.649v-16.8a13.27 13.27 0 0 0 3.018-2.649" fill="#EAC54C" /><path d="M737.388 505.05v16.8a13.29 13.29 0 0 1-2.312 1.179c-0.349 0.138-0.703 0.271-1.059 0.402v-16.8c0.355-0.131 0.71-0.264 1.059-0.402a13.254 13.254 0 0 0 2.312-1.179" fill="#EAC54C" /><path d="M734.018 506.63v16.8c-3.309 1.217-6.912 2.168-10.511 2.66v-16.8c3.598-0.491 7.202-1.443 10.511-2.66M723.507 509.291v16.8a38.71 38.71 0 0 1-4.993 0.368c-24.493 0.141-48.992 0.173-73.489 0.173-21.229 0-42.458-0.024-63.688-0.024-19.435 0-38.875 0.01-58.308 0.01-25.915 0-51.826-0.018-77.743-0.097-4.576-0.019-9.272-0.829-13.687-1.947-8.074-2.043-11.088-7.874-12.027-14.385a8.356 8.356 0 0 1-0.08-1.143v-16.801c0 0.387 0.027 0.77 0.08 1.144 0.939 6.513 3.953 12.344 12.027 14.387 4.415 1.118 9.112 1.929 13.687 1.947 25.918 0.081 51.829 0.097 77.743 0.097 19.435 0 38.876-0.01 58.308-0.01 21.229 0 42.458 0.024 63.688 0.024 24.497 0 48.996-0.033 73.489-0.173a39.245 39.245 0 0 0 4.993-0.37" fill="#EAC54C" /><path d="M612.009 476.07c35.78 0 71.545 0.011 107.322 0.026 12.218 0 19.726 3.9 23.324 11.811 2.983 6.564-0.15 15.408-7.579 18.323-5.1 2-11.008 3.396-16.563 3.43-24.493 0.141-48.992 0.173-73.489 0.173-21.229 0-42.459-0.024-63.688-0.024-19.435 0-38.875 0.01-58.308 0.01-25.915 0-51.826-0.018-77.743-0.097-4.576-0.018-9.272-0.829-13.687-1.947-8.074-2.043-11.089-7.874-12.027-14.387-0.804-5.604 4.558-12.536 11.333-14.761 4.263-1.404 8.991-2.445 13.516-2.445 55.858-0.085 111.73-0.112 167.589-0.112z" fill="#FBEEC5" /><path d="M743.77 616.336v16.8c0 5.184-2.908 10.626-8.028 12.673-5.412 2.166-11.65 3.788-17.538 3.824-24.305 0.167-48.618 0.203-72.924 0.203-9.849 0-19.692-0.007-29.54-0.011-11.38-0.01-22.771-0.018-34.152-0.018H542.88c-32.256 0-64.513-0.004-96.776-0.035-3.337 0-6.743-0.157-10-0.741-9.889-1.779-16.572-8.328-16.623-15.923v-16.8c0.051 7.595 6.735 14.144 16.623 15.923 3.255 0.583 6.662 0.74 10 0.74 32.263 0.03 64.52 0.036 96.776 0.036h38.708c11.381 0 22.772 0.008 34.152 0.018 9.847 0.004 19.69 0.011 29.54 0.011 24.306 0 48.619-0.035 72.924-0.203 5.888-0.036 12.126-1.66 17.538-3.824 5.119-2.047 8.028-7.489 8.028-12.673z" fill="#EAC54C" /><path d="M743.77 616.336v16.8c0 0.285-0.008 0.567-0.025 0.854v-16.8c0.017-0.287 0.025-0.57 0.025-0.854M743.744 617.19v16.8c-0.184 3.014-1.332 6.048-3.308 8.391v-16.8c1.976-2.344 3.125-5.377 3.308-8.391" fill="#EAC54C" /><path d="M740.437 625.581v16.8a12.23 12.23 0 0 1-2.769 2.438v-16.8c1.05-0.67 1.977-1.5 2.769-2.438M737.668 628.019v16.8c-0.604 0.385-1.245 0.718-1.928 0.99-0.544 0.218-1.095 0.431-1.655 0.636v-16.8a63.193 63.193 0 0 0 1.655-0.636 11.56 11.56 0 0 0 1.928-0.99" fill="#EAC54C" /><path d="M734.086 629.645v16.8c-3.497 1.285-7.276 2.316-11.041 2.829v-16.801c3.765-0.513 7.542-1.543 11.041-2.828M723.045 632.475v16.8c-1.625 0.223-3.246 0.35-4.843 0.359-24.305 0.167-48.619 0.204-72.925 0.204-9.848 0-19.691-0.007-29.539-0.011-11.381-0.01-22.772-0.019-34.152-0.019h-38.708c-32.256 0-64.514-0.005-96.776-0.035-3.337 0-6.743-0.157-10-0.741-9.889-1.778-16.572-8.326-16.623-15.922v-16.8c0.051 7.596 6.735 14.144 16.623 15.922 3.255 0.584 6.662 0.741 10 0.741 32.263 0.03 64.521 0.035 96.776 0.035h38.708c11.38 0 22.771 0.009 34.152 0.018 9.847 0.005 19.69 0.012 29.539 0.012 24.306 0 48.62-0.036 72.925-0.204a37.588 37.588 0 0 0 4.843-0.359" fill="#EAC54C" /><path d="M627.442 599.28c30.362 0 60.71 0.003 91.071 0.004 13.196 0 20.563 3.711 24.254 12.074 2.701 6.139-0.191 14.919-7.027 17.65-5.413 2.165-11.651 3.788-17.538 3.824-24.305 0.166-48.619 0.203-72.925 0.203-9.848 0-19.691-0.007-29.539-0.011-11.381-0.01-22.772-0.018-34.152-0.018h-38.708c-32.256 0-64.514-0.004-96.776-0.036-3.337 0-6.743-0.157-10-0.74-9.889-1.779-16.572-8.328-16.623-15.923-0.06-7.524 7.227-14.649 16.925-16.307 2.913-0.489 5.927-0.688 8.891-0.688 60.713-0.023 121.434-0.032 182.147-0.032z" fill="#FBEEC5" /><path d="M743.905 368.873v16.8c0 4.908-2.581 9.803-7.852 12.445-4.768 2.391-10.847 3.963-16.34 3.98-55.18 0.142-110.362 0.178-165.539 0.178-36.788 0-73.569-0.017-110.36-0.029-12.912-0.008-20.3-4.017-23.406-12.239-0.466-1.241-0.689-2.598-0.689-3.996v-16.8c0 1.396 0.223 2.756 0.689 3.996 3.106 8.224 10.494 12.23 23.406 12.238 36.791 0.014 73.572 0.029 110.36 0.029 55.177 0 110.359-0.038 165.539-0.178 5.493-0.018 11.572-1.588 16.34-3.98 5.272-2.64 7.852-7.536 7.852-12.444z" fill="#EAC54C" /><path d="M743.905 368.873v16.8c0 0.282-0.01 0.561-0.027 0.843v-16.8c0.018-0.28 0.027-0.561 0.027-0.843" fill="#EAC54C" /><path d="M743.879 369.716v16.8a13.601 13.601 0 0 1-3.154 7.955v-16.8a13.599 13.599 0 0 0 3.154-7.955M740.725 377.671v16.8a14.276 14.276 0 0 1-3.251 2.84v-16.8a14.227 14.227 0 0 0 3.251-2.84M737.474 380.511v16.8a15.18 15.18 0 0 1-1.42 0.807 35.912 35.912 0 0 1-3.71 1.597v-16.8a35.819 35.819 0 0 0 3.71-1.597c0.497-0.25 0.971-0.518 1.42-0.807M732.344 382.915v16.8a39.833 39.833 0 0 1-8.262 2.069v-16.801a39.863 39.863 0 0 0 8.262-2.068M724.081 384.983v16.801c-1.476 0.201-2.942 0.31-4.367 0.315-55.18 0.143-110.362 0.178-165.539 0.178-36.788 0-73.569-0.016-110.36-0.028-12.912-0.008-20.3-4.017-23.406-12.239-0.466-1.241-0.689-2.598-0.689-3.996v-16.8c0 1.397 0.223 2.756 0.689 3.996 3.106 8.224 10.494 12.23 23.406 12.238 36.791 0.014 73.572 0.029 110.36 0.029 55.177 0 110.359-0.038 165.539-0.178a33.138 33.138 0 0 0 4.367-0.316" fill="#EAC54C" /><path d="M518.066 352.354c21.415 0 42.83 0.027 64.248 0.027 21.001 0 42.015-0.023 63.021-0.023 24.511 0 49.015 0.031 73.524 0.162 5.394 0.027 11.218 1.153 16.057 3.178 11.42 4.792 12.137 20.113 1.139 25.622-4.768 2.391-10.846 3.963-16.339 3.98-55.18 0.142-110.362 0.178-165.539 0.178-36.789 0-73.57-0.017-110.361-0.029-12.912-0.008-20.3-4.016-23.406-12.238-2.238-5.937 1.129-14.597 7.722-17.128 5.131-1.964 10.977-3.508 16.51-3.544 24.476-0.151 48.95-0.185 73.424-0.185z" fill="#FBEEC5" /><path d="M324.76 369.183v16.8c0.101 9.499-11.189 19.283-22.328 19.344-11.218 0-22.375-9.654-22.337-19.256v-16.8c-0.038 9.603 11.12 19.257 22.337 19.257 11.138-0.06 22.429-9.846 22.328-19.345z" fill="#D88E40" /><path d="M324.76 369.183v16.8c0.004 0.304-0.006 0.609-0.025 0.911v-16.8c0.019-0.302 0.029-0.608 0.025-0.911M324.735 370.096v16.8c-0.217 3.361-1.814 6.72-4.281 9.63v-16.8c2.467-2.912 4.064-6.269 4.281-9.63" fill="#D88E40" /><path d="M320.456 379.726v16.8c-1.582 1.869-3.522 3.555-5.686 4.938v-16.8c2.164-1.383 4.104-3.069 5.686-4.938M314.77 384.664v16.8a25.752 25.752 0 0 1-4.97 2.476v-16.801a25.747 25.747 0 0 0 4.97-2.475" fill="#D88E40" /><path d="M309.8 387.139v16.801c-1.552 0.57-3.157 0.983-4.777 1.202v-16.799a22.668 22.668 0 0 0 4.777-1.204M305.023 388.343v16.799c-0.86 0.118-1.726 0.181-2.592 0.186-11.218 0-22.375-9.654-22.336-19.256v-16.8c-0.04 9.603 11.118 19.257 22.336 19.257a19.917 19.917 0 0 0 2.592-0.186" fill="#D88E40" /><path d="M302.312 349.892c11.3-0.001 22.348 9.506 22.448 19.291 0.101 9.499-11.189 19.283-22.328 19.345-11.218 0-22.375-9.654-22.337-19.257 0.04-9.978 10.786-19.354 22.217-19.379z" fill="#F7B772" /><path d="M324.76 492.542v16.8c-0.089 9.465-11.441 19.19-22.334 19.19-0.07 0-0.137-0.003-0.204-0.003-11.23-0.131-22.309-9.874-22.106-19.449v-16.8c-0.202 9.576 10.876 19.318 22.106 19.45 0.067 0 0.134 0.003 0.204 0.003 10.893-0.004 22.243-9.728 22.334-19.191z" fill="#D88E40" /><path d="M324.76 492.542v16.8c-0.001 0.225-0.011 0.45-0.026 0.676v-16.8c0.015-0.227 0.024-0.452 0.026-0.676M324.733 493.217v16.8c-0.22 3.374-1.834 6.75-4.312 9.678v-16.8c2.479-2.927 4.093-6.304 4.312-9.678M320.421 502.895v16.8c-1.605 1.896-3.571 3.605-5.757 5.002v-16.799c2.187-1.398 4.152-3.106 5.757-5.003M314.664 507.898v16.799a25.725 25.725 0 0 1-4.958 2.473v-16.8a25.72 25.72 0 0 0 4.958-2.472" fill="#D88E40" /><path d="M309.706 510.37v16.8a22.232 22.232 0 0 1-4.679 1.18v-16.8a22.232 22.232 0 0 0 4.679-1.18M305.027 511.549v16.8c-0.867 0.117-1.736 0.182-2.602 0.182l-0.204-0.001c-11.23-0.133-22.309-9.876-22.106-19.451v-16.8c-0.202 9.576 10.876 19.318 22.106 19.451l0.204 0.001a19.632 19.632 0 0 0 2.602-0.182" fill="#D88E40" /><path d="M302.32 473.108h0.183c11.47 0.097 22.348 9.595 22.255 19.433-0.089 9.464-11.441 19.19-22.334 19.19-0.07 0-0.137-0.003-0.204-0.003-11.23-0.131-22.309-9.874-22.106-19.45 0.213-10.098 10.746-19.17 22.206-19.17z" fill="#F7B772" /><path d="M324.765 616.306v16.801c0 9.195-11.327 19.183-22.14 19.398a19.87 19.87 0 0 1-0.346 0.003c-10.619 0-22.063-9.891-22.162-19.268v-16.8c0.1 9.376 11.543 19.269 22.162 19.269 0.115 0 0.232-0.003 0.346-0.004 10.813-0.216 22.14-10.203 22.14-19.399z" fill="#D88E40" /><path d="M324.765 616.306v16.801c0 0.244-0.01 0.49-0.025 0.735v-16.8c0.015-0.246 0.025-0.491 0.025-0.736M324.74 617.042v16.8c-0.213 3.315-1.848 6.699-4.355 9.656v-16.8c2.507-2.957 4.142-6.341 4.355-9.656M320.385 626.699v16.8c-1.652 1.95-3.682 3.714-5.935 5.154v-16.8c2.253-1.44 4.283-3.206 5.935-5.154M314.45 631.853v16.8a26.086 26.086 0 0 1-5.036 2.515v-16.801a26.082 26.082 0 0 0 5.036-2.514M309.414 634.366v16.801c-1.509 0.554-3.06 0.955-4.615 1.167v-16.8a21.974 21.974 0 0 0 4.615-1.168M304.799 635.534v16.8a18.998 18.998 0 0 1-2.521 0.174c-10.619 0-22.062-9.891-22.162-19.268v-16.8c0.1 9.376 11.543 19.269 22.162 19.269 0.115 0 0.232-0.003 0.346-0.004a18.998 18.998 0 0 0 2.175-0.171" fill="#D88E40" /><path d="M302.38 596.874c11.032-0.001 22.1 9.422 22.378 19.119 0.264 9.279-11.199 19.493-22.136 19.712-0.113 0.001-0.231 0.004-0.346 0.004-10.619 0-22.064-9.892-22.162-19.269-0.122-9.97 10.471-19.392 21.994-19.566h0.272z" fill="#F7B772" /></svg>