<?xml version="1.0" encoding="UTF-8"?>
<svg id="logo" data-name="レイヤー 1" xmlns="http://www.w3.org/2000/svg" viewBox="0 0 1500 454">
  <defs>
    <style>
      .cls-1 {
        fill: #697683;
      }
    </style>
  </defs>
  <path class="cls-1" d="m284.63,221.47c-1.95-11.55-10.8-58.15-13.01-69.22-.11-.53-.16-.59-.36-.8-.75-.75-2.98-1.29-5.62-1.29s-4.88.54-5.62,1.29c-.2.2-.22.27-.33.8-1.52,7.33-8.29,44.97-11.44,58.52-1.35,5.79-3.65,8.84-10.96,8.84-8.07,0-12.34-3.75-13.84-12.38-2.6-14.98-12.11-78.25-15.05-92.74-.15-.75-.26-1.27-1.61-1.95-1.81-.91-5.03-1.52-8.71-1.52-3.68,0-6.91.61-8.71,1.52-1.35.68-1.46,1.2-1.61,1.95-2.93,14.48-12.44,77.76-15.05,92.74-1.5,8.63-5.77,12.38-13.84,12.38-7.3,0-9.61-3.05-10.96-8.84-3.16-13.55-9.93-51.19-11.44-58.52-.11-.53-.13-.59-.33-.8-.75-.75-2.98-1.29-5.62-1.29s-4.88.54-5.62,1.29c-.2.2-.26.27-.36.8-2.21,11.07-11.06,57.67-13.01,69.22-.28,1.67-.45,3.57-.45,5.53,0,1.96.17,3.87.45,5.53,1.95,11.55,10.8,58.15,13.01,69.22.11.53.16.59.36.8.75.75,2.98,1.29,5.62,1.29s4.88-.54,5.62-1.29c.2-.2.22-.27.33-.8,1.52-7.33,8.29-44.97,11.44-58.52,1.35-5.79,3.65-8.84,10.96-8.84,8.07,0,12.34,3.75,13.84,12.38,2.6,14.98,12.11,78.25,15.05,92.74.15.75.26,1.27,1.61,1.95,1.81.91,5.03,1.52,8.71,1.52,3.68,0,6.91-.61,8.71-1.52,1.35-.68,1.46-1.2,1.61-1.95,2.93-14.48,12.44-77.76,15.05-92.74,1.5-8.63,5.77-12.38,13.84-12.38,7.3,0,9.61,3.05,10.96,8.84,3.16,13.55,9.93,51.19,11.44,58.52.11.53.13.59.33.8.75.75,2.98,1.29,5.62,1.29s4.88-.54,5.62-1.29c.2-.2.26-.27.36-.8,2.21-11.07,11.06-57.67,13.01-69.22.28-1.67.45-3.57.45-5.53,0-1.96-.17-3.87-.45-5.53Z"/>
  <g>
    <path class="cls-1" d="m1344.83,216.08c-12.29-6.47-27.39-13.22-30.12-21.34-.19-.66.17-.94.76-.94h66.08c1.09,0,1.97-.88,1.97-1.97v-22.24c0-1.09-.88-1.97-1.97-1.97h-93.21c-4.72,0-6.77,1.5-7.66,4.47-.85,2.82-1.83,7.48-1.83,16.49,0,28.28,19.48,38.76,44.37,51.48,14.37,7.34,26.58,17.71,27.09,25.47.02.54-.14.81-.9.81h-68.45c-1.09,0-1.97.88-1.97,1.97v22.24c0,1.09.88,1.97,1.97,1.97h98.54c4.47,0,5.9-1.18,7.42-6.29,1.22-4.1,2-9.43,2-16.66,0-20.24-17.64-39.57-44.1-53.5Z"/>
    <path class="cls-1" d="m1235.73,167.62h-30.43c-.96,0-1.74.78-1.74,1.74v92.24c0,1.67-.46,2.05-1.91,2.74-5.36,2.57-12.57,3.98-21.12,3.98s-15.76-1.41-21.12-3.98c-1.45-.7-1.91-1.08-1.91-2.74v-92.24c0-.96-.78-1.74-1.74-1.74h-30.43c-.96,0-1.74.78-1.74,1.74,0,27.08.02,88.21,0,108.3,0,3.89.1,4.61,4.53,6.73,9.36,4.49,30.77,11,52.41,11s43.05-6.5,52.41-11c4.43-2.12,4.53-2.84,4.53-6.73-.02-20.09,0-81.23,0-108.3,0-.96-.78-1.74-1.74-1.74Z"/>
    <rect class="cls-1" x="1037.29" y="167.62" width="36.49" height="124.9" rx="1.74" ry="1.74"/>
    <path class="cls-1" d="m988.36,167.62h-82.11c-3.04,0-4.99,1.05-6.56,3.76-9.53,16.4-14.01,35.7-14.01,56.94,0,22.45,7.7,46.39,16.44,60.48,1.86,3,3.51,3.72,7.48,3.72h78.76c.96,0,1.74-.78,1.74-1.74v-22.7c0-.96-.78-1.74-1.74-1.74h-57.21c-1.03,0-1.24-.14-1.61-.97-4.48-9.87-7.88-22.69-7.88-37.06,0-11.57,2.31-23.29,6.63-33.57.31-.73.54-.95,1.37-.95h58.71c.96,0,1.74-.78,1.74-1.74v-22.7c0-.96-.78-1.74-1.74-1.74Z"/>
    <path class="cls-1" d="m805.14,216.08c-12.29-6.47-27.39-13.22-30.12-21.34-.19-.66.17-.94.76-.94h66.08c1.09,0,1.97-.88,1.97-1.97v-22.24c0-1.09-.88-1.97-1.97-1.97h-93.21c-4.72,0-6.77,1.5-7.66,4.47-.85,2.82-1.83,7.48-1.83,16.49,0,28.28,19.48,38.76,44.37,51.48,14.37,7.34,26.58,17.71,27.09,25.47.02.54-.14.81-.9.81h-68.45c-1.09,0-1.97.88-1.97,1.97v22.24c0,1.09.88,1.97,1.97,1.97h98.54c4.47,0,5.9-1.18,7.42-6.29,1.22-4.1,2-9.43,2-16.66,0-20.24-17.64-39.57-44.1-53.5Z"/>
    <path class="cls-1" d="m691.6,167.63h-90.05c-3.04,0-4.99,1.05-6.56,3.76-9.53,16.4-14.01,35.7-14.01,56.94,0,22.45,7.7,46.39,16.44,60.48,1.86,3,3.51,3.72,7.48,3.72h86.7c.96,0,1.74-.78,1.74-1.74v-22.7c0-.96-.78-1.74-1.74-1.74h-66.51c-1.03,0-1.24-.14-1.61-.97-2.77-6.1-4.97-13.1-6.25-21.1-.11-.7.27-1.03,1.12-1.03h67.92c.96,0,1.74-.78,1.74-1.74v-22.7c0-.96-.78-1.74-1.74-1.74h-68.25c-1.14,0-1.38-.2-1.31-.97.9-7.51,2.69-14.63,5.52-21.36.31-.73.54-.95,1.37-.95h68.01c.96,0,1.74-.78,1.74-1.74v-22.7c0-.96-.78-1.74-1.74-1.74Z"/>
    <path class="cls-1" d="m531.93,167.71c-17.71,2.04-32.01,13.32-42.05,23.73-9.69,10.05-20.6,24.24-22.95,27.34-.12.15-.29.23-.46.23s-.35-.08-.46-.23c-2.36-3.1-13.26-17.29-22.95-27.34-10.04-10.41-24.33-21.69-42.05-23.73-3.87-.45-4.85,1.36-4.85,3.89v119.18c0,.96.78,1.74,1.74,1.74h29.97c.96,0,1.74-.78,1.74-1.74v-69.82c0-.66.4-.74.82-.32,10.35,10.33,23.19,27.84,30.42,38.32,2.45,3.55,3.7,5.59,5.62,5.59s3.18-2.05,5.62-5.59c7.23-10.48,20.07-27.99,30.42-38.32.42-.42.82-.34.82.32v69.82c0,.96.78,1.74,1.74,1.74h29.97c.96,0,1.74-.78,1.74-1.74v-119.18c0-2.54-.98-4.34-4.85-3.89Z"/>
  </g>
</svg>