<?xml version="1.0" encoding="UTF-8"?>
<svg id="_レイヤー_1" data-name="レイヤー 1" xmlns="http://www.w3.org/2000/svg" viewBox="0 0 1400 1500">
  <defs>
    <style>
      .cls-1 {
        fill: #697683;
      }
    </style>
  </defs>
  <path class="cls-1" d="m1092.96,724.95c-8.87-52.43-49.02-263.99-59.07-314.24-.48-2.41-.72-2.68-1.64-3.61-3.38-3.4-13.53-5.87-25.53-5.87s-22.14,2.47-25.53,5.87c-.92.93-1,1.21-1.5,3.61-6.88,33.29-37.61,204.16-51.94,265.66-6.13,26.3-16.58,40.14-49.73,40.14-36.66,0-56.03-17.01-62.84-56.18-11.81-68.01-54.99-355.25-68.3-421-.69-3.39-1.16-5.77-7.3-8.86-8.2-4.13-22.85-6.88-39.55-6.88-16.71,0-31.35,2.75-39.55,6.88-6.14,3.09-6.61,5.47-7.3,8.86-13.31,65.75-56.49,352.99-68.3,421-6.8,39.17-26.18,56.18-62.84,56.18-33.15,0-43.61-13.85-49.73-40.14-14.33-61.5-45.06-232.37-51.94-265.66-.5-2.4-.57-2.68-1.5-3.61-3.38-3.4-13.53-5.87-25.53-5.87s-22.14,2.47-25.53,5.87c-.92.93-1.16,1.2-1.64,3.61-10.05,50.25-50.2,261.81-59.07,314.24-1.28,7.57-2.03,16.23-2.06,25.12.02,8.89.78,17.55,2.06,25.12,8.87,52.43,49.02,263.99,59.07,314.24.48,2.41.72,2.68,1.64,3.61,3.38,3.4,13.53,5.87,25.53,5.87s22.14-2.47,25.53-5.87c.92-.93,1-1.21,1.5-3.61,6.88-33.29,37.61-204.16,51.94-265.66,6.13-26.3,16.58-40.15,49.73-40.15,36.66,0,56.03,17.01,62.84,56.18,11.81,68.01,54.99,355.25,68.3,421,.69,3.39,1.16,5.77,7.3,8.86,8.2,4.13,22.85,6.88,39.55,6.88,16.71,0,31.35-2.75,39.55-6.88,6.14-3.09,6.61-5.47,7.3-8.86,13.31-65.75,56.49-352.99,68.3-421,6.8-39.17,26.18-56.18,62.84-56.18,33.15,0,43.61,13.85,49.73,40.15,14.33,61.5,45.06,232.37,51.94,265.66.5,2.4.57,2.68,1.5,3.61,3.38,3.4,13.53,5.87,25.53,5.87s22.14-2.47,25.53-5.87c.92-.93,1.16-1.2,1.64-3.61,10.05-50.25,50.2-261.81,59.07-314.24,1.28-7.57,2.03-16.23,2.06-25.12-.02-8.89-.78-17.55-2.06-25.12Z"/>
</svg>