<?xml version="1.0" standalone="no"?>
<!DOCTYPE svg PUBLIC "-//W3C//DTD SVG 20010904//EN"
 "http://www.w3.org/TR/2001/REC-SVG-20010904/DTD/svg10.dtd">
<svg version="1.0" xmlns="http://www.w3.org/2000/svg"
 width="260.000000pt" height="260.000000pt" viewBox="0 0 260.000000 260.000000"
 preserveAspectRatio="xMidYMid meet">
<metadata>
Created by potrace 1.11, written by Peter Selinger 2001-2013
</metadata>
<g transform="translate(0.000000,260.000000) scale(0.100000,-0.100000)"
fill="#000000" stroke="none">
<path d="M1125 2015 c-180 -33 -330 -110 -455 -235 -136 -137 -198 -266 -208
-435 -2 -49 -9 -95 -14 -102 -5 -6 -106 -44 -224 -83 -130 -44 -218 -78 -221
-87 -9 -23 99 -354 120 -367 13 -8 66 6 250 67 128 42 239 77 248 77 8 0 31
-16 50 -36 49 -51 183 -138 269 -175 418 -178 939 -6 1130 372 41 79 61 159
69 262 l6 90 225 76 c210 71 225 78 227 101 1 14 -24 99 -55 190 -49 140 -60
165 -79 168 -12 2 -121 -31 -243 -72 -122 -42 -229 -76 -237 -76 -8 0 -41 22
-72 48 -139 119 -288 192 -455 221 -79 14 -244 12 -331 -4z m356 -353 c158
-77 259 -261 230 -418 -25 -133 -112 -248 -230 -307 -62 -30 -71 -32 -181 -32
-109 0 -119 2 -182 32 -86 41 -155 109 -199 198 -31 64 -34 77 -34 165 0 88 3
101 34 165 54 110 139 183 256 222 25 8 77 12 141 10 90 -2 107 -6 165 -35z"/>
</g>
</svg>
